# xmcd
#
# Track frame offsets:
#	150
#	16334
#	30418
#	43752
#	57677
#	71196
#	85109
#	100002
#	113851
#	128781
#	142538
#	157237
#	170642
#	183996
#	198439
#	214989
#	229920
#	244690
#
# Disc length: 3450 seconds
#
# Revision: 0
# Processed by: cddbd v1.5.2PL0 Copyright (c) Steve Scherf et al.
# Submitted via: EasyCDDAExtractor 16.0.6.1
#
DISCID=fe0d7812
DTITLE=Το χρυσό κλαρίνο-Βασ. Σαλέας
DYEAR=2002
DGENRE=Παραδοσιακή
TTITLE0=Άνευ ερμηνευτού - Σβαρνιάρα [σόλο κλ. Β. Σαλέας]
TTITLE1=Παύλου Θανάσης - Σε περιμένω για να 'ρθείς [συρτό τσιφτετέλι]
TTITLE2=Παύλου Θανάσης - Στην Ρούμελη και στον Μωριά [τσάμικο]
TTITLE3=Μάγκελ Έλενα - Βοχαΐτισσα [τσάμικο]
TTITLE4=Άνευ ερμηνευτού - Το κοφτό [συρτό]
TTITLE5=Ζαχαρόπουλος Ζαχαρίας - Παιδιά της Σαμαρίνας [χορός στα τρία]
TTITLE6=Ζαχαρόπουλος Ζαχαρίας - Το μαριόλικο [τσάμικο]
TTITLE7=Μάγκελ Έλενα - Διαμάντω ποιος σε φίλησε [συρτό]
TTITLE8=Άνευ ερμηνευτού - Ο ήλιος [τσάμικο]
TTITLE9=Παύλου Θανάσης - Σαν πας Μαλάμω για νερό [συρτό]
TTITLE10=Ζαχαρόπουλος Ζαχαρίας - Όλα τα πουλάκια [καλαματιανό]
TTITLE11=Άνευ ερμηνευτού - Παπαδιά [καλαματιανό]
TTITLE12=Παύλου Θανάσης - Πώς λάμπει ο ήλιος του Μαγιού [τσάμικο]
TTITLE13=Ζαχαρόπουλος Ζαχαρίας - Μπήκαν τα γίδια στο μαντρί [συρτό]
TTITLE14=Άνευ ερμηνευτού - Λιβανατέϊκο [σόλο κλαρίνο Β. Σαλέας]
TTITLE15=Παύλου Θανάσης - Τρεις στρατηγοί ξεκίνησαν [κλέφτικο]
TTITLE16=Παύλου Θανάσης - Ανέβα Μήτρο στο Βουνό [κλέφτικο]
TTITLE17=Άνευ ερμηνευτού - Τα μεράκια του Σαλέα [σόλο κλ. Β. Σαλέας]
EXTD=YEAR: 2002\n
EXTT0=
EXTT1=
EXTT2=
EXTT3=
EXTT4=
EXTT5=
EXTT6=
EXTT7=
EXTT8=
EXTT9=
EXTT10=
EXTT11=
EXTT12=
EXTT13=
EXTT14=
EXTT15=
EXTT16=
EXTT17=
PLAYORDER=
